<svg version="1.1" id="Layer_1" xmlns="http://www.w3.org/2000/svg" xmlns:xlink="http://www.w3.org/1999/xlink" x="0px" y="0px"
	 width="100%" viewBox="0 0 600 358" enable-background="new 0 0 600 358" xml:space="preserve">
<path fill="none" opacity="1.000000" stroke="#000000" stroke-linecap="round" stroke-linejoin="round" stroke-width="4.000000"
	d="
M69.000000,291.500000 
	C67.835655,282.685486 68.263954,273.801636 68.708282,265.010529 
	C68.983185,259.571533 67.998405,254.338593 68.339951,248.789749 
	C46.427673,246.137299 24.989565,241.335922 2.865633,244.396271 
	C0.867659,282.491364 3.036091,320.501617 2.441908,358.500000 
	C59.500000,358.500000 116.500000,358.500000 173.499939,358.500000 
	C173.479004,355.135437 175.611771,351.555481 172.500000,348.500000 
"/>
<path fill="none" opacity="1.000000" stroke="#000000" stroke-linecap="round" stroke-linejoin="round" stroke-width="2.000000"
	d="
M537.000000,237.000000 
	C552.335144,237.000000 567.670288,237.000000 583.250000,237.000000 
	C583.250000,179.334290 583.250000,121.167145 583.250000,62.500000 
	C577.342346,62.500000 571.171143,62.500000 565.000000,62.500000 
	C550.500000,62.500000 536.000000,62.500000 521.500000,62.500000 
"/>
<path fill="none" opacity="1.000000" stroke="#000000" stroke-linecap="round" stroke-linejoin="round" stroke-width="2.000000"
	d="
M172.500000,248.500000 
	C141.500000,248.500000 110.500000,248.500000 79.500000,248.500000 
"/>
<path fill="none" opacity="1.000000" stroke="#000000" stroke-linecap="round" stroke-linejoin="round" stroke-width="3.000000"
	d="
M489.500000,235.500000 
	C487.500031,235.433350 487.995239,236.921112 488.013916,237.999756 
	C488.299652,254.498703 487.394653,271.008057 488.463623,287.502350 
	C488.581360,289.319153 488.196564,291.168518 487.976379,293.830322 
	C496.437347,294.930634 504.955200,294.809418 513.500000,294.000000 
"/>
<path fill="none" opacity="1.000000" stroke="#000000" stroke-linecap="round" stroke-linejoin="round" stroke-width="4.000000"
	d="
M314.000000,26.500000 
	C313.833313,40.333332 313.616119,54.166302 313.516052,68.000114 
	C313.436462,78.999542 313.500000,90.000000 313.500000,101.000000 
	C313.500000,105.166664 313.490021,109.333366 313.502594,113.499992 
	C313.517731,118.520515 313.184509,123.565475 314.500000,128.500000 
"/>
<path fill="none" opacity="1.000000" stroke="#000000" stroke-linecap="round" stroke-linejoin="round" stroke-width="2.000000"
	d="
M383.500000,236.500000 
	C383.500000,253.166672 383.581848,269.834198 383.406616,286.499023 
	C383.381989,288.839478 385.274170,291.478668 383.413879,293.417358 
	C381.308441,295.611450 378.172028,294.402679 375.499115,294.455200 
	C368.664368,294.589508 361.825195,294.500000 354.500000,294.500000 
	C354.500000,292.501526 354.500000,291.000763 354.500000,289.500000 
"/>
<path fill="none" opacity="1.000000" stroke="#000000" stroke-linecap="round" stroke-linejoin="round" stroke-width="2.000000"
	d="
M495.500000,167.500000 
	C495.500000,174.666672 495.500000,181.833328 495.500000,189.250000 
	C504.660614,189.250000 513.830322,189.250000 523.250000,189.250000 
	C523.250000,184.000000 523.250000,178.500000 523.250000,173.000000 
	C521.500000,173.000000 520.000000,173.000000 518.500000,173.000000 
"/>
<path fill="none" opacity="1.000000" stroke="#000000" stroke-linecap="round" stroke-linejoin="round" stroke-width="3.000000"
	d="
M172.500000,339.500000 
	C173.669373,339.335358 174.016266,338.619629 174.013657,337.499969 
	C173.990204,327.497253 174.000000,317.494446 174.000000,306.984283 
	C141.000000,307.135651 108.500000,306.458557 76.000000,307.500000 
"/>
<path fill="none" opacity="1.000000" stroke="#000000" stroke-linecap="round" stroke-linejoin="round" stroke-width="3.000000"
	d="
M536.500000,113.500000 
	C536.500000,119.500000 536.500000,125.500000 536.500000,132.500000 
	C551.826294,132.500000 567.163147,132.500000 582.500000,132.500000 
"/>
<path fill="none" opacity="1.000000" stroke="#000000" stroke-linecap="round" stroke-linejoin="round" stroke-width="2.000000"
	d="
M139.500000,229.500000 
	C119.833336,229.500000 100.166664,229.500000 80.500000,229.500000 
"/>
<path fill="none" opacity="1.000000" stroke="#000000" stroke-linecap="round" stroke-linejoin="round" stroke-width="3.000000"
	d="
M349.000000,26.500000 
	C349.000000,58.333332 349.020630,90.166718 348.935547,121.999825 
	C348.931519,123.499069 350.383514,125.794502 347.500000,126.500000 
"/>
<path fill="none" opacity="1.000000" stroke="#000000" stroke-linecap="round" stroke-linejoin="round" stroke-width="3.000000"
	d="
M452.500000,26.500000 
	C454.930634,27.748449 452.831024,29.555092 452.884521,31.004263 
	C453.364136,43.995483 452.511047,57.004227 453.444275,70.003998 
	C453.789490,74.812553 453.500000,79.666664 453.500000,84.500000 
"/>
<path fill="none" opacity="1.000000" stroke="#000000" stroke-linecap="round" stroke-linejoin="round" stroke-width="3.000000"
	d="
M277.000000,265.000000 
	C267.333344,265.000000 257.662720,265.158386 248.002045,264.918060 
	C244.393631,264.828308 243.377579,266.114807 243.448135,269.501068 
	C243.611313,277.331024 243.499908,285.166656 243.500137,293.000000 
	C243.500168,293.721466 243.331741,294.556610 244.500000,294.500000 
"/>
<path fill="none" opacity="1.000000" stroke="#000000" stroke-linecap="round" stroke-linejoin="round" stroke-width="2.000000"
	d="
M518.000000,236.000000 
	C520.002869,236.314560 522.005798,236.629120 523.500000,236.863785 
	C523.500000,255.830383 523.500000,274.669617 523.500000,293.784271 
	C522.307312,293.410095 521.653687,293.205048 521.000000,293.000000 
"/>
<path fill="none" opacity="1.000000" stroke="#000000" stroke-linecap="round" stroke-linejoin="round" stroke-width="2.000000"
	d="
M515.000000,118.000000 
	C515.700806,119.666664 515.756836,121.333336 514.893188,123.250000 
	C511.833344,123.250000 508.666656,123.250000 505.250000,123.250000 
	C505.250000,121.366623 505.250000,119.683334 505.250000,117.750000 
	C499.666656,117.750000 494.333344,117.750000 489.092865,117.750000 
	C488.251434,120.000000 488.251434,122.000000 489.006958,124.020210 
	C491.273010,125.011269 493.677368,124.183441 496.330750,124.673050 
	C497.351196,127.412109 494.315735,132.646576 500.500000,133.000000 
"/>
<path fill="none" opacity="1.000000" stroke="#000000" stroke-linecap="round" stroke-linejoin="round" stroke-width="2.000000"
	d="
M417.500000,26.500000 
	C419.311157,26.742207 418.456482,28.159838 418.459320,29.000137 
	C418.514130,45.333286 418.515778,61.666706 418.478058,77.999947 
	C418.473816,79.833664 418.218201,81.673332 417.982178,83.497696 
	C417.821167,84.742241 418.281647,85.372093 419.500000,85.500000 
"/>
<path fill="none" opacity="1.000000" stroke="#000000" stroke-linecap="round" stroke-linejoin="round" stroke-width="3.000000"
	d="
M284.500000,194.500000 
	C281.887482,195.532959 279.166504,194.967804 276.499939,194.976181 
	C261.000092,195.024857 245.499969,195.012222 230.000046,194.978302 
	C228.666367,194.975388 227.333328,194.666672 226.000000,194.500000 
"/>
<path fill="none" opacity="1.000000" stroke="#000000" stroke-linecap="round" stroke-linejoin="round" stroke-width="3.000000"
	d="
M582.500000,202.000000 
	C566.833313,202.000000 551.166687,202.000000 535.500000,202.000000 
"/>
<path fill="none" opacity="1.000000" stroke="#000000" stroke-linecap="round" stroke-linejoin="round" stroke-width="2.000000"
	d="
M138.000000,307.500000 
	C139.191528,312.130066 138.402435,316.836609 138.454391,321.500519 
	C138.589905,333.665649 138.500000,345.833344 138.500000,358.000000 
"/>
<path fill="none" opacity="1.000000" stroke="#000000" stroke-linecap="round" stroke-linejoin="round" stroke-width="3.000000"
	d="
M413.000000,81.000000 
	C413.013062,84.432976 411.141724,85.147217 407.998291,85.068604 
	C399.833313,84.864403 391.659882,85.000000 383.734406,85.000000 
	C383.465637,81.157539 383.255371,77.826965 382.989716,74.500816 
	C382.870819,73.012047 382.219238,72.059303 380.500000,72.500000 
"/>
<path fill="none" opacity="1.000000" stroke="#000000" stroke-linecap="round" stroke-linejoin="round" stroke-width="3.000000"
	d="
M582.500000,167.000000 
	C567.166687,167.000000 551.833313,167.000000 536.500000,167.000000 
"/>
<path fill="none" opacity="1.000000" stroke="#000000" stroke-linecap="round" stroke-linejoin="round" stroke-width="2.000000"
	d="
M384.500000,26.500000 
	C382.530884,27.424389 383.566589,29.187889 383.556488,30.500435 
	C383.461395,42.833035 383.524261,55.166786 383.464722,67.499832 
	C383.458344,68.821732 384.058014,70.278084 383.000000,71.500000 
"/>
<path fill="none" opacity="1.000000" stroke="#000000" stroke-linecap="round" stroke-linejoin="round" stroke-width="2.000000"
	d="
M535.500000,97.000000 
	C551.157104,98.064232 566.834290,97.241295 582.500000,97.500000 
"/>
<path fill="none" opacity="1.000000" stroke="#000000" stroke-linecap="round" stroke-linejoin="round" stroke-width="3.000000"
	d="
M174.000000,55.500000 
	C174.000000,78.333336 174.000000,101.166664 174.000000,124.000000 
"/>
<path fill="none" opacity="1.000000" stroke="#000000" stroke-linecap="round" stroke-linejoin="round" stroke-width="3.000000"
	d="
M413.000000,101.000000 
	C412.666687,99.666656 412.333405,98.333321 412.062592,97.250000 
	C402.663696,97.250000 393.327393,97.250000 384.063904,97.250000 
	C381.525604,106.959511 384.280548,116.510506 383.542999,126.003342 
	C383.532135,126.143265 384.166656,126.333336 384.500000,126.500000 
"/>
<path fill="none" opacity="1.000000" stroke="#000000" stroke-linecap="round" stroke-linejoin="round" stroke-width="2.000000"
	d="
M243.500000,55.500000 
	C243.192032,63.163593 243.011246,70.900215 243.325424,78.486526 
	C243.616302,85.510452 242.706375,92.514931 243.500000,99.500000 
"/>
<path fill="none" opacity="1.000000" stroke="#000000" stroke-linecap="round" stroke-linejoin="round" stroke-width="2.000000"
	d="
M419.500000,235.500000 
	C417.389679,236.605118 418.566010,238.524139 418.558533,240.000290 
	C418.468109,257.833191 418.500000,275.666656 418.500000,293.500000 
"/>
<path fill="none" opacity="1.000000" stroke="#000000" stroke-linecap="round" stroke-linejoin="round" stroke-width="3.000000"
	d="
M242.500000,113.000000 
	C235.692032,111.793434 228.825729,112.978134 221.750000,112.346268 
	C221.750000,116.500000 221.750000,120.500000 221.750000,125.000000 
	C240.663696,125.000000 259.331848,125.000000 278.000000,125.000000 
"/>
<path fill="none" opacity="1.000000" stroke="#000000" stroke-linecap="round" stroke-linejoin="round" stroke-width="2.000000"
	d="
M524.000000,63.500000 
	C522.881042,73.984886 523.804810,84.502251 523.495605,94.999870 
	C523.443970,96.750214 524.251465,97.596336 525.998596,97.479240 
	C526.175659,97.467369 526.370605,97.188622 526.486389,96.991989 
	C526.559265,96.868233 526.500000,96.666664 526.500000,96.500000 
"/>
<path fill="none" opacity="1.000000" stroke="#000000" stroke-linecap="round" stroke-linejoin="round" stroke-width="2.000000"
	d="
M219.500000,79.500000 
	C220.931198,79.468269 221.042542,79.554199 221.264893,81.469246 
	C221.867340,86.658409 220.661621,91.898178 222.121384,97.626350 
	C228.833328,97.132217 235.666672,98.130074 242.500000,97.000000 
"/>
<path fill="none" opacity="1.000000" stroke="#000000" stroke-linecap="round" stroke-linejoin="round" stroke-width="2.000000"
	d="
M226.000000,161.000000 
	C226.000000,162.666672 226.000000,164.333328 226.000000,166.212173 
	C224.683456,166.338531 223.346954,166.466797 221.750000,166.620056 
	C221.750000,173.658920 221.750000,180.829453 221.750000,188.149307 
	C223.092972,188.903610 224.720703,189.459656 226.500000,188.500000 
"/>
<path fill="none" opacity="1.000000" stroke="#000000" stroke-linecap="round" stroke-linejoin="round" stroke-width="3.000000"
	d="
M540.500000,243.000000 
	C537.049988,242.911636 535.824890,244.598816 535.945374,248.001938 
	C536.145874,253.661499 536.000000,259.333344 536.000061,264.999634 
	C537.645752,265.438049 539.180908,266.428894 540.962952,265.898834 
	C542.204407,269.281433 540.940796,272.680664 541.475830,276.003906 
	C541.699280,277.391876 541.093384,277.998932 539.502136,278.058136 
	C536.469666,278.170959 535.147156,280.527802 535.615967,282.977814 
	C536.547424,287.846252 536.018921,292.675812 535.895874,297.497345 
	C535.829590,300.094421 537.151245,300.560822 539.000000,301.000000 
"/>
<path fill="none" opacity="1.000000" stroke="#000000" stroke-linecap="round" stroke-linejoin="round" stroke-width="2.000000"
	d="
M150.500000,293.500000 
	C150.500000,283.497223 150.500000,273.494446 150.500000,263.500000 
	C157.166672,263.500000 163.342850,263.705994 169.496384,263.421753 
	C173.112000,263.254730 174.128967,264.614441 174.051575,268.001190 
	C173.884079,275.330688 174.062592,282.667389 173.978180,289.999756 
	C173.921036,294.963715 174.618774,295.747742 179.483017,294.902283 
	C180.109787,294.793365 180.816833,294.600677 181.500000,294.500000 
"/>
<path fill="none" opacity="1.000000" stroke="#000000" stroke-linecap="round" stroke-linejoin="round" stroke-width="2.000000"
	d="
M277.500000,232.500000 
	C277.705170,230.628174 277.071442,229.974121 275.001343,229.932648 
	C266.331482,229.759003 257.651184,228.838715 249.003418,229.109207 
	C233.824509,229.584015 218.658188,228.946182 203.502243,229.159134 
	C186.166595,229.402725 168.833267,229.326736 151.500000,229.500000 
"/>
<path fill="none" opacity="1.000000" stroke="#000000" stroke-linecap="round" stroke-linejoin="round" stroke-width="3.000000"
	d="
M348.000000,265.500000 
	C339.017670,264.378723 329.999237,265.135529 320.999573,265.039490 
	C307.001160,264.890106 293.000000,265.000000 279.000000,265.000000 
"/>
<path fill="none" opacity="1.000000" stroke="#000000" stroke-linecap="round" stroke-linejoin="round" stroke-width="2.000000"
	d="
M416.500000,294.500000 
	C418.666656,293.102478 420.830292,294.590363 423.000488,294.576996 
	C443.833038,294.448334 464.666656,294.502899 485.500000,294.487305 
	C486.183228,294.486816 486.997162,294.821991 487.500000,294.000000 
"/>
<path fill="none" opacity="1.000000" stroke="#000000" stroke-linecap="round" stroke-linejoin="round" stroke-width="2.000000"
	d="
M279.000000,91.500000 
	C277.090820,79.500000 279.446106,67.500000 278.276398,55.500000 
	C290.333344,55.500000 301.666656,55.500000 313.000000,55.500000 
"/>
<path fill="none" opacity="1.000000" stroke="#000000" stroke-linecap="round" stroke-linejoin="round" stroke-width="3.000000"
	d="
M208.000000,195.000000 
	C197.666672,195.000000 187.333191,194.972031 177.000107,195.022690 
	C174.832672,195.033310 172.666672,195.333344 170.500000,195.500000 
"/>
<path fill="none" opacity="1.000000" stroke="#000000" stroke-linecap="round" stroke-linejoin="round" stroke-width="3.000000"
	d="
M208.000000,160.000000 
	C197.666672,160.000000 187.333191,159.972031 177.000107,160.022690 
	C174.832672,160.033310 172.666672,160.333328 170.500000,160.500000 
"/>
<path fill="none" opacity="1.000000" stroke="#000000" stroke-linecap="round" stroke-linejoin="round" stroke-width="2.000000"
	d="
M226.000000,126.000000 
	C225.763901,127.657265 225.527802,129.314529 225.246399,131.289795 
	C224.458557,132.043243 223.150635,131.221069 221.816269,131.578934 
	C221.727478,131.977890 221.516983,132.488541 221.514832,133.000061 
	C221.491257,138.666641 221.748230,144.348633 221.400314,149.993851 
	C221.212769,153.036835 222.572830,153.769608 225.000000,154.000000 
"/>
<path fill="none" opacity="1.000000" stroke="#000000" stroke-linecap="round" stroke-linejoin="round" stroke-width="3.000000"
	d="
M273.500000,311.500000 
	C271.722076,307.068207 268.228180,306.837433 263.998505,306.900726 
	C247.668839,307.145203 231.333328,307.000000 214.500000,307.000000 
	C214.500000,308.498474 214.500000,309.999237 214.500000,311.500000 
"/>
<path fill="none" opacity="1.000000" stroke="#000000" stroke-linecap="round" stroke-linejoin="round" stroke-width="3.000000"
	d="
M567.500000,306.500000 
	C556.679749,307.516296 545.834534,306.912964 534.999939,306.995789 
	C531.492249,307.022583 527.984131,307.000000 524.000000,307.000000 
	C524.000000,317.160919 524.000000,326.830444 524.000000,336.500000 
"/>
<path fill="none" opacity="1.000000" stroke="#000000" stroke-linecap="round" stroke-linejoin="round" stroke-width="3.000000"
	d="
M490.500000,336.500000 
	C488.628174,336.705170 487.056580,335.751099 488.100403,334.062042 
	C491.128601,329.162048 487.583740,324.394379 488.149292,319.459808 
	C488.584656,315.661469 488.479462,311.500000 488.545135,307.000000 
	C479.506165,307.000000 470.499756,307.143280 461.501526,306.934357 
	C457.519684,306.841888 460.972687,310.981781 458.500000,311.500000 
"/>
<path fill="none" opacity="1.000000" stroke="#000000" stroke-linecap="round" stroke-linejoin="round" stroke-width="3.000000"
	d="
M204.000000,161.000000 
	C204.000000,162.683334 204.000000,164.366669 204.000000,166.100708 
	C205.983093,166.419983 207.497696,166.663818 209.000000,166.905685 
	C209.000000,172.666672 208.911957,178.335327 209.040955,183.999069 
	C209.096817,186.451385 208.696442,188.351196 206.000000,189.000000 
"/>
<path fill="none" opacity="1.000000" stroke="#000000" stroke-linecap="round" stroke-linejoin="round" stroke-width="2.000000"
	d="
M270.500000,97.500000 
	C265.000000,97.500000 259.500000,97.500000 253.500000,97.500000 
	C253.500000,102.822914 253.500000,108.161461 253.500000,113.500000 
"/>
<path fill="none" opacity="1.000000" stroke="#000000" stroke-linecap="round" stroke-linejoin="round" stroke-width="3.000000"
	d="
M424.500000,79.500000 
	C425.551697,81.078163 424.706177,82.846046 424.271088,84.750000 
	C432.325745,84.750000 439.662872,84.750000 447.500000,84.750000 
	C447.500000,83.501541 447.500000,82.000771 447.500000,80.500000 
"/>
<path fill="none" opacity="1.000000" stroke="#000000" stroke-linecap="round" stroke-linejoin="round" stroke-width="2.000000"
	d="
M342.500000,102.500000 
	C343.469574,101.000000 342.820007,99.500000 342.388672,97.750000 
	C335.166656,97.750000 327.833344,97.750000 320.000000,97.750000 
	C320.000000,99.463081 320.000000,100.981544 320.000000,102.500000 
"/>
<path fill="none" opacity="1.000000" stroke="#000000" stroke-linecap="round" stroke-linejoin="round" stroke-width="4.000000"
	d="
M350.500000,235.500000 
	C348.629425,236.543152 349.021576,238.351852 349.005371,240.000046 
	C348.830109,257.833313 348.666656,275.666656 348.500000,293.500000 
"/>
<path fill="none" opacity="1.000000" stroke="#000000" stroke-linecap="round" stroke-linejoin="round" stroke-width="2.000000"
	d="
M283.500000,289.500000 
	C285.706207,290.431274 283.626495,292.791168 285.574005,294.500000 
	C291.658325,294.500000 298.330261,294.570526 304.999481,294.466858 
	C307.851105,294.422546 307.976288,292.654816 307.000000,290.500000 
"/>
<path fill="none" opacity="1.000000" stroke="#000000" stroke-linecap="round" stroke-linejoin="round" stroke-width="3.000000"
	d="
M171.500000,126.500000 
	C173.045746,126.137245 173.687683,124.604874 176.016647,124.786377 
	C186.820419,125.628380 197.653656,123.820480 209.000000,125.418602 
	C209.000000,115.172623 209.459808,105.807838 208.883926,96.507187 
	C208.159698,84.810699 209.163452,73.166542 208.990997,61.500134 
	C208.966248,59.824802 209.301270,58.103207 208.500000,56.500000 
"/>
<path fill="none" opacity="1.000000" stroke="#000000" stroke-linecap="round" stroke-linejoin="round" stroke-width="3.000000"
	d="
M307.000000,310.500000 
	C308.358093,307.768036 307.283997,306.928009 304.499542,306.969269 
	C298.000977,307.065582 291.500000,307.000000 285.001526,307.000488 
	C283.626495,308.208832 285.706207,310.568726 283.500000,311.500000 
"/>
<path fill="none" opacity="1.000000" stroke="#000000" stroke-linecap="round" stroke-linejoin="round" stroke-width="2.000000"
	d="
M378.000000,101.500000 
	C376.907501,100.465599 377.804230,99.147018 377.394165,97.750000 
	C370.007416,97.750000 362.503693,97.750000 354.671783,97.750000 
	C353.666534,98.583298 355.346039,100.419846 354.000000,101.500000 
"/>
<path fill="none" opacity="1.000000" stroke="#000000" stroke-linecap="round" stroke-linejoin="round" stroke-width="3.000000"
	d="
M494.500000,201.500000 
	C504.500000,202.320541 514.500000,202.320541 524.500000,201.500000 
"/>
<path fill="none" opacity="1.000000" stroke="#000000" stroke-linecap="round" stroke-linejoin="round" stroke-width="3.000000"
	d="
M354.500000,80.500000 
	C354.500000,81.854164 354.500000,83.208336 354.500000,85.000000 
	C361.658325,85.000000 368.335999,84.819885 374.997223,85.073212 
	C378.520996,85.207222 376.924255,82.276535 378.000000,81.000000 
"/>
<path fill="none" opacity="1.000000" stroke="#000000" stroke-linecap="round" stroke-linejoin="round" stroke-width="2.000000"
	d="
M243.500000,308.000000 
	C243.500000,316.500000 243.539780,325.000427 243.445801,333.499390 
	C243.434982,334.478088 244.518814,336.061829 242.500000,336.500000 
"/>
<path fill="none" opacity="1.000000" stroke="#000000" stroke-linecap="round" stroke-linejoin="round" stroke-width="2.000000"
	d="
M223.500000,265.500000 
	C218.827377,265.500000 214.154755,265.500000 209.000000,265.500000 
	C209.000000,270.821838 209.000000,275.660919 209.000000,280.500000 
"/>
<path fill="none" opacity="1.000000" stroke="#000000" stroke-linecap="round" stroke-linejoin="round" stroke-width="3.000000"
	d="
M343.500000,311.500000 
	C340.573669,311.296509 343.014862,308.409241 340.667053,307.000000 
	C334.841675,307.000000 328.165009,307.167847 321.502197,306.936920 
	C317.517456,306.798798 320.972687,310.981781 318.500000,311.500000 
"/>
<path fill="none" opacity="1.000000" stroke="#000000" stroke-linecap="round" stroke-linejoin="round" stroke-width="2.000000"
	d="
M226.500000,200.500000 
	C225.000000,199.530426 223.500000,200.179993 221.750000,200.611328 
	C221.750000,208.000000 221.750000,215.500000 221.750000,222.956635 
	C223.491577,223.242508 225.086487,222.555008 226.500000,223.500000 
"/>
<path fill="none" opacity="1.000000" stroke="#000000" stroke-linecap="round" stroke-linejoin="round" stroke-width="3.000000"
	d="
M320.500000,79.500000 
	C319.914429,81.166664 319.661926,82.833336 320.574066,85.000000 
	C327.158325,85.000000 333.834991,84.832138 340.497803,85.063072 
	C344.482544,85.201187 341.027313,81.018211 343.500000,80.500000 
"/>
<path fill="none" opacity="1.000000" stroke="#000000" stroke-linecap="round" stroke-linejoin="round" stroke-width="2.000000"
	d="
M104.000000,274.500000 
	C102.839935,279.634613 103.146721,284.914001 103.721161,289.974884 
	C104.145760,293.715607 103.154823,294.591675 100.000549,294.484009 
	C97.996567,294.415619 95.938812,294.900940 94.000000,294.000000 
"/>
<path fill="none" opacity="1.000000" stroke="#000000" stroke-linecap="round" stroke-linejoin="round" stroke-width="2.000000"
	d="
M447.500000,102.500000 
	C447.500000,101.000000 447.500000,99.500000 447.500000,97.500000 
	C440.841675,97.500000 434.165161,97.663574 427.502319,97.432724 
	C424.041809,97.312820 424.615692,99.503433 424.500000,101.500000 
"/>
<path fill="none" opacity="1.000000" stroke="#000000" stroke-linecap="round" stroke-linejoin="round" stroke-width="3.000000"
	d="
M401.000000,308.000000 
	C400.714783,318.164734 401.600433,328.348633 400.500000,338.500000 
"/>
<path fill="none" opacity="1.000000" stroke="#000000" stroke-linecap="round" stroke-linejoin="round" stroke-width="2.000000"
	d="
M74.500000,329.500000 
	C73.048164,331.814972 71.167755,329.844208 69.210419,330.010803 
	C67.729012,339.281982 68.847893,348.667175 68.500000,358.000000 
"/>
<path fill="none" opacity="1.000000" stroke="#000000" stroke-linecap="round" stroke-linejoin="round" stroke-width="3.000000"
	d="
M378.500000,311.500000 
	C376.850342,307.000000 376.850342,307.000000 371.000000,307.000000 
	C365.661469,307.000000 360.322906,307.000000 355.349487,307.000000 
	C353.987549,308.727600 354.746246,310.176605 354.500000,311.500000 
"/>
<path fill="none" opacity="1.000000" stroke="#000000" stroke-linecap="round" stroke-linejoin="round" stroke-width="2.000000"
	d="
M524.500000,117.500000 
	C522.383545,119.943779 523.889160,122.839958 523.549438,125.506302 
	C523.297913,127.481125 523.500000,129.513748 523.500000,131.553513 
	C516.264587,133.338058 509.280396,131.776611 502.500000,133.000000 
"/>
<path fill="none" opacity="1.000000" stroke="#000000" stroke-linecap="round" stroke-linejoin="round" stroke-width="3.000000"
	d="
M277.500000,114.000000 
	C274.537689,113.887245 270.813812,111.279091 269.444977,116.485527 
	C269.371643,116.764374 268.493225,116.995575 268.001038,116.974998 
	C262.835602,116.759003 257.637878,117.559059 252.500000,116.500000 
"/>
<path fill="none" opacity="1.000000" stroke="#000000" stroke-linecap="round" stroke-linejoin="round" stroke-width="3.000000"
	d="
M447.500000,311.500000 
	C447.500000,309.999237 447.500000,308.498474 447.500000,307.000000 
	C441.833344,307.000000 436.663574,307.109283 431.501038,306.963074 
	C427.819641,306.858826 424.232849,306.562103 423.500000,311.500000 
"/>
<path fill="none" opacity="1.000000" stroke="#000000" stroke-linecap="round" stroke-linejoin="round" stroke-width="2.000000"
	d="
M251.000000,294.500000 
	C260.833344,294.500000 270.666656,294.500000 280.500000,294.500000 
"/>
<path fill="none" opacity="1.000000" stroke="#000000" stroke-linecap="round" stroke-linejoin="round" stroke-width="3.000000"
	d="
M511.000000,146.000000 
	C510.548462,150.739349 507.614014,151.381256 503.491943,151.134323 
	C501.189758,150.996429 497.432709,149.243073 496.915283,154.211899 
	C501.270233,156.567780 506.117798,153.939697 510.500000,155.342606 
	C510.500000,157.500000 510.500000,159.500000 510.500000,161.500000 
"/>
<path fill="none" opacity="1.000000" stroke="#000000" stroke-linecap="round" stroke-linejoin="round" stroke-width="3.000000"
	d="
M453.000000,307.500000 
	C453.000000,316.166656 452.977386,324.833466 453.027161,333.499847 
	C453.033752,334.648804 452.250671,336.374664 454.500000,336.500000 
"/>
<path fill="none" opacity="1.000000" stroke="#000000" stroke-linecap="round" stroke-linejoin="round" stroke-width="3.000000"
	d="
M273.500000,85.000000 
	C265.166656,85.000000 256.833344,85.000000 248.500000,85.000000 
"/>
<path fill="none" opacity="1.000000" stroke="#000000" stroke-linecap="round" stroke-linejoin="round" stroke-width="2.000000"
	d="
M419.500000,97.500000 
	C418.281647,97.627907 417.841766,98.256508 417.984528,99.501778 
	C418.956909,107.983162 418.321838,116.500221 418.498169,125.000038 
	C418.513123,125.721222 418.331726,126.556618 419.500000,126.500000 
"/>
<path fill="none" opacity="1.000000" stroke="#000000" stroke-linecap="round" stroke-linejoin="round" stroke-width="2.000000"
	d="
M280.500000,306.500000 
	C277.327667,305.995941 277.842407,308.319977 278.039520,309.995361 
	C279.018921,318.320862 278.236633,326.668579 278.496826,335.000092 
	C278.519348,335.720825 278.668274,336.556610 277.500000,336.500000 
"/>
<path fill="none" opacity="1.000000" stroke="#000000" stroke-linecap="round" stroke-linejoin="round" stroke-width="2.000000"
	d="
M175.000000,97.500000 
	C183.166672,97.500000 191.333328,97.500000 199.500000,97.500000 
"/>
<path fill="none" opacity="1.000000" stroke="#000000" stroke-linecap="round" stroke-linejoin="round" stroke-width="2.000000"
	d="
M418.000000,307.500000 
	C418.901947,318.155182 418.285736,328.834961 418.564209,339.498322 
	C418.629761,342.008942 417.999298,342.999298 415.500000,342.500000 
"/>
<path fill="none" opacity="1.000000" stroke="#000000" stroke-linecap="round" stroke-linejoin="round" stroke-width="3.000000"
	d="
M313.000000,307.500000 
	C313.103088,317.001129 312.524170,326.514191 313.500000,336.000000 
"/>
<path fill="none" opacity="1.000000" stroke="#000000" stroke-linecap="round" stroke-linejoin="round" stroke-width="3.000000"
	d="
M211.500000,306.500000 
	C208.870392,306.003113 208.978256,307.724701 208.986740,309.500061 
	C209.019440,316.333252 209.017181,323.166718 208.987717,329.999939 
	C208.980499,331.674683 209.301270,333.396790 208.500000,335.000000 
"/>
<path fill="none" opacity="1.000000" stroke="#000000" stroke-linecap="round" stroke-linejoin="round" stroke-width="2.000000"
	d="
M319.500000,290.500000 
	C318.383148,293.420990 319.697449,294.506989 322.500000,294.502502 
	C327.833344,294.493927 333.169281,294.397736 338.499146,294.533813 
	C342.440735,294.634430 342.083435,292.041718 342.000000,289.500000 
"/>
<path fill="none" opacity="1.000000" stroke="#000000" stroke-linecap="round" stroke-linejoin="round" stroke-width="3.000000"
	d="
M204.500000,200.500000 
	C206.895477,200.156769 209.051193,200.063263 209.016296,203.500168 
	C208.957092,209.332886 209.040985,215.167053 208.986984,220.999878 
	C208.944107,225.630615 204.896301,221.705200 203.500000,223.500000 
"/>
<path fill="none" opacity="1.000000" stroke="#000000" stroke-linecap="round" stroke-linejoin="round" stroke-width="2.000000"
	d="
M277.500000,262.500000 
	C279.213623,272.975433 278.722656,283.485870 278.000000,294.000000 
"/>
<path fill="none" opacity="1.000000" stroke="#000000" stroke-linecap="round" stroke-linejoin="round" stroke-width="4.000000"
	d="
M348.500000,307.500000 
	C348.500000,316.833344 348.500000,326.166656 348.500000,335.500000 
"/>
<path fill="none" opacity="1.000000" stroke="#000000" stroke-linecap="round" stroke-linejoin="round" stroke-width="3.000000"
	d="
M537.500000,272.000000 
	C546.666687,272.000000 555.833313,272.000000 565.000000,272.000000 
"/>
<path fill="none" opacity="1.000000" stroke="#000000" stroke-linecap="round" stroke-linejoin="round" stroke-width="3.000000"
	d="
M501.500000,166.500000 
	C508.810791,167.659058 516.170166,166.678314 523.500000,167.000000 
"/>
<path fill="none" opacity="1.000000" stroke="#000000" stroke-linecap="round" stroke-linejoin="round" stroke-width="4.000000"
	d="
M453.500000,98.500000 
	C453.500000,109.166664 453.500000,119.833336 453.500000,130.500000 
"/>
<path fill="none" opacity="1.000000" stroke="#000000" stroke-linecap="round" stroke-linejoin="round" stroke-width="2.000000"
	d="
M75.000000,333.500000 
	C75.963036,341.650421 75.304176,349.833923 75.500000,358.000000 
"/>
<path fill="none" opacity="1.000000" stroke="#000000" stroke-linecap="round" stroke-linejoin="round" stroke-width="2.000000"
	d="
M538.500000,75.500000 
	C538.205078,82.496948 539.115234,89.522583 538.000000,96.500000 
"/>
<path fill="none" opacity="1.000000" stroke="#000000" stroke-linecap="round" stroke-linejoin="round" stroke-width="2.000000"
	d="
M69.500000,307.500000 
	C71.333336,307.500000 73.166664,307.500000 75.593094,307.500000 
	C75.142105,314.500000 76.136589,321.500000 75.000000,328.500000 
"/>
<path fill="none" opacity="1.000000" stroke="#000000" stroke-linecap="round" stroke-linejoin="round" stroke-width="2.000000"
	d="
M167.000000,289.500000 
	C167.000000,291.000000 167.000000,292.500000 167.000000,294.500000 
	C160.341415,294.500000 153.664673,294.667084 147.002686,294.425903 
	C143.912613,294.314026 143.881226,291.892731 144.500000,289.500000 
"/>
<path fill="none" opacity="1.000000" stroke="#000000" stroke-linecap="round" stroke-linejoin="round" stroke-width="3.000000"
	d="
M203.500000,130.500000 
	C205.257324,131.278702 207.362823,130.780746 209.000000,132.463821 
	C209.000000,136.833328 209.000000,141.666672 209.000000,146.500000 
"/>
<path fill="none" opacity="1.000000" stroke="#000000" stroke-linecap="round" stroke-linejoin="round" stroke-width="2.000000"
	d="
M221.500000,158.500000 
	C222.699829,161.322861 225.190979,160.061111 226.993500,159.918091 
	C238.493134,159.005569 250.002182,159.577087 261.499878,159.591919 
	C267.323395,159.599442 273.155701,159.086655 279.027740,159.757095 
	C280.669739,159.944580 282.340240,160.259949 284.003174,160.475479 
	C284.145844,160.493988 284.370667,160.188644 284.486420,159.992004 
	C284.559296,159.868225 284.500000,159.666672 284.500000,159.500000 
"/>
<path fill="none" opacity="1.000000" stroke="#000000" stroke-linecap="round" stroke-linejoin="round" stroke-width="3.000000"
	d="
M313.000000,266.000000 
	C313.000000,275.166656 313.000000,284.333344 313.000000,293.500000 
"/>
<path fill="none" opacity="1.000000" stroke="#000000" stroke-linecap="round" stroke-linejoin="round" stroke-width="2.000000"
	d="
M278.500000,95.500000 
	C278.500000,104.666664 278.027313,113.862167 278.584320,122.994858 
	C280.657593,156.988617 278.871399,191.002853 279.484222,225.000290 
	C279.510925,226.482697 280.162384,228.290054 278.000000,229.000000 
"/>
<path fill="none" opacity="1.000000" stroke="#000000" stroke-linecap="round" stroke-linejoin="round" stroke-width="2.000000"
	d="
M565.500000,238.000000 
	C565.500000,260.833344 565.500000,283.666656 565.500000,306.500000 
"/>
<path fill="none" opacity="1.000000" stroke="#000000" stroke-linecap="round" stroke-linejoin="round" stroke-width="2.000000"
	d="
M523.500000,307.000000 
	C516.166687,306.316406 508.833344,306.228180 501.500000,307.000000 
"/>
<path fill="none" opacity="1.000000" stroke="#000000" stroke-linecap="round" stroke-linejoin="round" stroke-width="2.000000"
	d="
M191.500000,264.500000 
	C185.984253,266.710419 180.077744,264.492126 174.500000,266.000000 
"/>
<path fill="none" opacity="1.000000" stroke="#000000" stroke-linecap="round" stroke-linejoin="round" stroke-width="2.000000"
	d="
M383.000000,319.500000 
	C384.110596,324.971405 383.205688,330.503876 383.500000,336.000000 
"/>
<path fill="none" opacity="1.000000" stroke="#000000" stroke-linecap="round" stroke-linejoin="round" stroke-width="2.000000"
	d="
M68.500000,303.500000 
	C68.752937,311.831604 68.028679,320.182770 69.000000,328.500000 
"/>
<path fill="none" opacity="1.000000" stroke="#000000" stroke-linecap="round" stroke-linejoin="round" stroke-width="2.000000"
	d="
M523.000000,146.500000 
	C524.074585,151.666672 523.217163,156.833328 523.583435,162.241394 
	C520.892029,161.070633 518.666931,161.663330 516.500000,161.500000 
"/>
<path fill="none" opacity="1.000000" stroke="#000000" stroke-linecap="round" stroke-linejoin="round" stroke-width="3.000000"
	d="
M413.000000,311.500000 
	C412.723724,309.989685 412.447479,308.479340 412.176910,307.000000 
	C407.500000,307.000000 402.995911,307.122314 398.500946,306.971619 
	C391.618103,306.740784 391.620789,306.660919 388.500000,311.500000 
"/>
<path fill="none" opacity="1.000000" stroke="#000000" stroke-linecap="round" stroke-linejoin="round" stroke-width="2.000000"
	d="
M104.500000,294.000000 
	C110.833336,294.499512 117.166664,294.897003 123.500000,294.000000 
"/>
<path fill="none" opacity="1.000000" stroke="#000000" stroke-linecap="round" stroke-linejoin="round" stroke-width="2.000000"
	d="
M208.000000,107.500000 
	C204.500000,107.500000 201.000000,107.500000 197.500000,107.500000 
"/>
<path fill="none" opacity="1.000000" stroke="#000000" stroke-linecap="round" stroke-linejoin="round" stroke-width="3.000000"
	d="
M243.500000,111.500000 
	C243.333344,115.666664 243.166672,119.833336 243.000000,124.000000 
"/>
<path fill="none" opacity="1.000000" stroke="#000000" stroke-linecap="round" stroke-linejoin="round" stroke-width="2.000000"
	d="
M128.500000,273.500000 
	C125.166664,273.500000 121.833336,273.500000 118.500000,273.500000 
"/>
<path fill="none" opacity="1.000000" stroke="#000000" stroke-linecap="round" stroke-linejoin="round" stroke-width="2.000000"
	d="
M507.000000,335.500000 
	C506.833344,337.166656 506.405487,338.857605 506.557465,340.494659 
	C506.826447,343.391479 504.818665,342.311340 503.500000,342.500000 
"/>
<path fill="none" opacity="1.000000" stroke="#000000" stroke-linecap="round" stroke-linejoin="round" stroke-width="3.000000"
	d="
M183.000000,276.500000 
	C183.115433,279.169861 182.651443,281.875946 183.511185,284.483337 
	C185.167892,284.654907 186.833939,284.827454 188.500000,285.000000 
"/>
<path fill="none" opacity="1.000000" stroke="#000000" stroke-linecap="round" stroke-linejoin="round" stroke-width="2.000000"
	d="
M509.500000,323.500000 
	C509.453613,326.214142 509.211090,328.952789 510.756073,331.173096 
	C509.065582,334.597504 506.293732,334.534637 503.499908,334.509277 
	C499.500244,334.472931 495.500000,334.500000 491.500000,334.500000 
"/>
<path fill="none" opacity="1.000000" stroke="#000000" stroke-linecap="round" stroke-linejoin="round" stroke-width="2.000000"
	d="
M132.500000,284.500000 
	C132.666672,287.500000 132.833344,290.500000 133.000000,293.500000 
"/>
<path fill="none" opacity="1.000000" stroke="#000000" stroke-linecap="round" stroke-linejoin="round" stroke-width="3.000000"
	d="
M522.500000,138.000000 
	C519.500000,138.166672 516.500000,138.333344 513.500000,138.500000 
"/>
<path fill="none" opacity="1.000000" stroke="#000000" stroke-linecap="round" stroke-linejoin="round" stroke-width="3.000000"
	d="
M209.000000,148.500000 
	C209.873444,152.981216 206.871933,153.910385 203.500000,154.500000 
"/>
<path fill="none" opacity="1.000000" stroke="#000000" stroke-linecap="round" stroke-linejoin="round" stroke-width="2.000000"
	d="
M137.500000,263.500000 
	C138.668259,263.443390 138.598404,264.294586 138.484985,264.997589 
	C136.955505,274.476898 139.679703,284.026550 138.000000,293.500000 
"/>
<path fill="none" opacity="1.000000" stroke="#000000" stroke-linecap="round" stroke-linejoin="round" stroke-width="3.000000"
	d="
M383.500000,307.500000 
	C383.299194,309.997711 383.590881,312.480682 383.115967,315.021667 
	C382.677612,317.367188 381.690704,318.562714 379.500000,319.000000 
"/>
<path fill="none" opacity="1.000000" stroke="#000000" stroke-linecap="round" stroke-linejoin="round" stroke-width="2.000000"
	d="
M523.000000,334.500000 
	C520.166687,334.500000 517.333313,334.500000 514.500000,334.500000 
"/>
<path fill="none" opacity="1.000000" stroke="#000000" stroke-linecap="round" stroke-linejoin="round" stroke-width="2.000000"
	d="
M103.500000,264.500000 
	C102.621811,267.576538 105.503944,269.989502 105.000000,273.000000 
"/>
<path fill="none" opacity="1.000000" stroke="#000000" stroke-linecap="round" stroke-linejoin="round" stroke-width="3.000000"
	d="
M253.500000,56.500000 
	C255.668930,58.968418 258.228455,55.968227 260.500000,57.000000 
"/>
<path fill="none" opacity="1.000000" stroke="#000000" stroke-linecap="round" stroke-linejoin="round" stroke-width="2.000000"
	d="
M510.000000,313.500000 
	C508.166656,313.500000 506.321716,313.372772 504.503571,313.539154 
	C502.974213,313.679108 503.241608,314.602081 504.000000,315.500000 
"/>
<path fill="none" opacity="1.000000" stroke="#000000" stroke-linecap="round" stroke-linejoin="round" stroke-width="2.000000"
	d="
M517.500000,146.000000 
	C517.500000,148.500000 517.500000,151.000000 517.500000,153.500000 
"/>
<path fill="none" opacity="1.000000" stroke="#000000" stroke-linecap="round" stroke-linejoin="round" stroke-width="2.000000"
	d="
M117.500000,287.500000 
	C120.681778,287.558563 123.895531,287.212158 127.000000,288.250000 
"/>
<path fill="none" opacity="1.000000" stroke="#000000" stroke-linecap="round" stroke-linejoin="round" stroke-width="3.000000"
	d="
M514.000000,289.500000 
	C514.770874,290.872375 512.152039,294.363281 516.500000,293.500000 
"/>
<path fill="none" opacity="1.000000" stroke="#000000" stroke-linecap="round" stroke-linejoin="round" stroke-width="3.000000"
	d="
M109.500000,287.500000 
	C108.599068,289.438812 109.153946,291.498932 109.000000,293.500000 
"/>
<path fill="none" opacity="1.000000" stroke="#000000" stroke-linecap="round" stroke-linejoin="round" stroke-width="3.000000"
	d="
M326.000000,105.500000 
	C327.620361,108.544739 325.789124,108.713173 323.500000,108.500000 
"/>
<path fill="none" opacity="1.000000" stroke="#000000" stroke-linecap="round" stroke-linejoin="round" stroke-width="2.000000"
	d="
M518.500000,307.500000 
	C518.500000,309.500000 518.500000,311.500000 518.500000,313.500000 
"/>
<path fill="none" opacity="1.000000" stroke="#000000" stroke-linecap="round" stroke-linejoin="round" stroke-width="2.000000"
	d="
M501.000000,314.500000 
	C501.375427,317.530121 503.127991,320.636749 500.500000,323.500000 
"/>
<path fill="none" opacity="1.000000" stroke="#000000" stroke-linecap="round" stroke-linejoin="round" stroke-width="3.000000"
	d="
M520.000000,145.000000 
	C520.000000,146.833328 520.000000,148.666672 520.000000,150.500000 
"/>
<path fill="none" opacity="1.000000" stroke="#000000" stroke-linecap="round" stroke-linejoin="round" stroke-width="2.000000"
	d="
M489.000000,320.000000 
	C490.771820,320.843353 492.661377,320.391693 494.500000,320.500000 
"/>
<path fill="none" opacity="1.000000" stroke="#000000" stroke-linecap="round" stroke-linejoin="round" stroke-width="2.000000"
	d="
M517.500000,320.500000 
	C514.848022,320.596771 511.746582,319.008057 510.000000,322.500000 
"/>
<path fill="none" opacity="1.000000" stroke="#000000" stroke-linecap="round" stroke-linejoin="round" stroke-width="2.000000"
	d="
M114.500000,280.000000 
	C112.922539,281.058685 111.156319,280.229889 109.500000,280.500000 
"/>
<path fill="none" opacity="1.000000" stroke="#000000" stroke-linecap="round" stroke-linejoin="round" stroke-width="2.000000"
	d="
M554.500000,276.500000 
	C552.858948,277.833344 552.858948,279.166656 554.500000,280.500000 
"/>
<path fill="none" opacity="1.000000" stroke="#000000" stroke-linecap="round" stroke-linejoin="round" stroke-width="2.000000"
	d="
M498.500000,307.000000 
	C495.500000,306.252655 492.500000,306.244812 489.500000,307.000000 
"/>
<path fill="none" opacity="1.000000" stroke="#000000" stroke-linecap="round" stroke-linejoin="round" stroke-width="2.000000"
	d="
M137.500000,280.500000 
	C135.833328,280.500000 134.166672,280.500000 132.500000,280.500000 
"/>
<path fill="none" opacity="1.000000" stroke="#000000" stroke-linecap="round" stroke-linejoin="round" stroke-width="2.000000"
	d="
M494.500000,307.500000 
	C494.500000,309.833344 494.500000,312.166656 494.500000,314.500000 
"/>
<path fill="none" opacity="1.000000" stroke="#000000" stroke-linecap="round" stroke-linejoin="round" stroke-width="2.000000"
	d="
M29.500000,294.500000 
	C27.858976,295.833344 27.858976,297.166656 29.500000,298.500000 
"/>
<path fill="none" opacity="1.000000" stroke="#000000" stroke-linecap="round" stroke-linejoin="round" stroke-width="2.000000"
	d="
M280.500000,211.500000 
	C281.833344,210.569473 283.166656,214.189194 284.500000,211.500000 
"/>
<path fill="none" opacity="1.000000" stroke="#000000" stroke-linecap="round" stroke-linejoin="round" stroke-width="2.000000"
	d="
M14.500000,353.500000 
	C14.500000,355.000000 14.500000,356.500000 14.500000,358.000000 
"/>
<path fill="none" opacity="1.000000" stroke="#000000" stroke-linecap="round" stroke-linejoin="round" stroke-width="2.000000"
	d="
M140.500000,294.500000 
	C136.515747,293.955322 132.457855,295.178192 128.500000,294.000000 
"/>
<path fill="none" opacity="1.000000" stroke="#000000" stroke-linecap="round" stroke-linejoin="round" stroke-width="2.000000"
	d="
M53.500000,353.500000 
	C53.500000,355.000000 53.500000,356.500000 53.500000,358.000000 
"/>
<path fill="none" opacity="1.000000" stroke="#000000" stroke-linecap="round" stroke-linejoin="round" stroke-width="2.000000"
	d="
M514.000000,146.500000 
	C511.926544,145.560806 509.912598,144.234711 507.500000,145.500000 
"/>
<path fill="none" opacity="1.000000" stroke="#000000" stroke-linecap="round" stroke-linejoin="round" stroke-width="2.000000"
	d="
M506.500000,321.000000 
	C505.166656,320.666687 503.833344,320.333344 502.500000,320.000000 
"/>
<path fill="none" opacity="1.000000" stroke="#000000" stroke-linecap="round" stroke-linejoin="round" stroke-width="2.000000"
	d="
M510.500000,133.500000 
	C510.500000,134.833328 510.500000,136.166672 510.500000,137.500000 
"/>
<path fill="none" opacity="1.000000" stroke="#000000" stroke-linecap="round" stroke-linejoin="round" stroke-width="4.000000"
	d="
M126.500000,277.500000 
	C123.861969,280.512634 123.708366,283.897919 125.000000,287.500000 
"/>
<path fill="none" opacity="1.000000" stroke="#000000" stroke-linecap="round" stroke-linejoin="round" stroke-width="3.000000"
	d="
M247.500000,74.500000 
	C249.138977,75.760918 250.466644,77.706726 253.000000,77.000000 
"/>
<path fill="none" opacity="1.000000" stroke="#000000" stroke-linecap="round" stroke-linejoin="round" stroke-width="2.000000"
	d="
M115.500000,284.500000 
	C117.491867,286.223572 116.185684,288.496826 116.500000,290.500000 
"/>
<path fill="none" opacity="1.000000" stroke="#000000" stroke-linecap="round" stroke-linejoin="round" stroke-width="3.000000"
	d="
M511.000000,310.500000 
	C511.668976,312.457764 509.194275,315.201447 512.500000,316.500000 
"/>
<path fill="none" opacity="1.000000" stroke="#000000" stroke-linecap="round" stroke-linejoin="round" stroke-width="3.000000"
	d="
M264.500000,74.500000 
	C266.138977,75.760918 267.436218,77.494347 270.017853,77.124512 
	C270.832367,77.007820 270.331787,78.666977 270.500000,79.500000 
"/>
<path fill="none" opacity="1.000000" stroke="#000000" stroke-linecap="round" stroke-linejoin="round" stroke-width="3.000000"
	d="
M498.500000,164.500000 
	C499.527618,164.347610 501.175690,162.931107 500.971527,165.497742 
	C500.722168,168.632736 498.556244,165.780212 497.500000,166.500000 
"/>
<path fill="none" opacity="1.000000" stroke="#000000" stroke-linecap="round" stroke-linejoin="round" stroke-width="4.000000"
	d="
M522.500000,142.500000 
	C521.491394,145.482834 518.568176,144.956894 516.476074,145.382507 
	C512.644226,146.162079 513.163513,148.032059 514.500000,150.500000 
"/>
<path fill="none" opacity="1.000000" stroke="#000000" stroke-linecap="round" stroke-linejoin="round" stroke-width="2.000000"
	d="
M258.500000,79.500000 
	C258.650238,77.286369 258.325043,75.521240 255.521896,77.040405 
	C254.550980,77.566605 253.833328,77.780075 253.000000,77.000000 
"/>
<path fill="none" opacity="1.000000" stroke="#000000" stroke-linecap="round" stroke-linejoin="round" stroke-width="3.000000"
	d="
M238.500000,151.500000 
	C238.658478,152.834351 235.723419,154.684189 239.009506,155.459717 
	C241.841431,156.128036 240.811340,153.818680 241.000000,152.500000 
"/>
<path fill="none" opacity="1.000000" stroke="#000000" stroke-linecap="round" stroke-linejoin="round" stroke-width="2.000000"
	d="
M523.500000,136.500000 
	C521.940979,138.027435 524.639221,139.980591 523.000000,141.500000 
"/>
<path fill="none" opacity="1.000000" stroke="#000000" stroke-linecap="round" stroke-linejoin="round" stroke-width="2.000000"
	d="
M455.500000,306.500000 
	C453.833344,306.500000 452.166656,306.500000 450.500000,306.500000 
"/>
<path fill="none" opacity="1.000000" stroke="#000000" stroke-linecap="round" stroke-linejoin="round" stroke-width="2.000000"
	d="
M315.500000,294.500000 
	C313.833344,294.500000 312.166656,294.500000 310.500000,294.500000 
"/>
<path fill="none" opacity="1.000000" stroke="#000000" stroke-linecap="round" stroke-linejoin="round" stroke-width="2.000000"
	d="
M420.500000,306.500000 
	C419.166656,306.243958 417.833344,307.773773 416.500000,306.500000 
"/>
<path fill="none" opacity="1.000000" stroke="#000000" stroke-linecap="round" stroke-linejoin="round" stroke-width="2.000000"
	d="
M315.500000,306.500000 
	C314.166656,306.243958 312.833344,307.773773 311.500000,306.500000 
"/>
<path fill="none" opacity="1.000000" stroke="#000000" stroke-linecap="round" stroke-linejoin="round" stroke-width="2.000000"
	d="
M536.500000,270.500000 
	C537.773743,271.833344 536.243958,273.166656 536.500000,274.500000 
"/>
<path fill="none" opacity="1.000000" stroke="#000000" stroke-linecap="round" stroke-linejoin="round" stroke-width="2.000000"
	d="
M535.500000,235.500000 
	C535.996948,236.792419 536.857971,237.993851 536.500000,239.500000 
"/>
</svg>